<svg xmlns="http://www.w3.org/2000/svg" width="960" height="548" viewBox="0 0 960 548" role="img" aria-labelledby="title desc">
<title id="title">h11r and h11 Python benchmark</title>
<desc id="desc">Relative throughput for five HTTP/1.1 scenarios. Higher is faster; h11 is the 1.00 baseline.</desc>
<style>
text{font-family:-apple-system,BlinkMacSystemFont,'Segoe UI',sans-serif}
.canvas{fill:#fbfbfd}.primary{fill:#1d1d1f}.secondary{fill:#6e6e73}.grid{stroke:#e5e5ea}
.candidate{fill:#d45d3f}.reference{fill:#c7c7cc}
</style>
<rect class="canvas" width="960" height="548"/>
<text class="secondary" x="40" y="27" font-size="11" font-weight="500" letter-spacing="1.4">PYTHON · HTTP/1.1</text>
<text class="primary" x="40" y="58" font-size="25" font-weight="500" letter-spacing="-0.4">Relative throughput by scenario</text>
<text class="secondary" x="40" y="83" font-size="13">h11 0.16.0 = 1.00× · higher is faster</text>
<line class="grid" x1="330.0" y1="108" x2="330.0" y2="492"/>
<text class="secondary" x="330.0" y="102" text-anchor="middle" font-size="10">0×</text>
<line class="grid" x1="470.0" y1="108" x2="470.0" y2="492"/>
<text class="secondary" x="470.0" y="102" text-anchor="middle" font-size="10">5×</text>
<line class="grid" x1="610.0" y1="108" x2="610.0" y2="492"/>
<text class="secondary" x="610.0" y="102" text-anchor="middle" font-size="10">10×</text>
<line class="grid" x1="750.0" y1="108" x2="750.0" y2="492"/>
<text class="secondary" x="750.0" y="102" text-anchor="middle" font-size="10">15×</text>
<line class="grid" x1="890.0" y1="108" x2="890.0" y2="492"/>
<text class="secondary" x="890.0" y="102" text-anchor="middle" font-size="10">20×</text>
<text class="primary" x="40" y="139" font-size="13" font-weight="500">Small GET</text>
<text class="secondary" x="40" y="161" font-size="11">0.79 µs vs 12.44 µs</text>
<text class="secondary" x="278" y="136" text-anchor="end" font-size="10">h11r</text>
<rect class="candidate" x="330" y="124" width="443.2" height="15" rx="7.5"/>
<text class="primary" x="783.2" y="136" font-size="11" font-weight="500">15.8×</text>
<text class="secondary" x="278" y="159" text-anchor="end" font-size="10">h11</text>
<rect class="reference" x="330" y="147" width="28.0" height="10" rx="5"/>
<text class="primary" x="40" y="215" font-size="13" font-weight="500">Fixed body · 1 KiB</text>
<text class="secondary" x="40" y="237" font-size="11">1.12 µs vs 15.58 µs</text>
<text class="secondary" x="278" y="212" text-anchor="end" font-size="10">h11r</text>
<rect class="candidate" x="330" y="200" width="388.7" height="15" rx="7.5"/>
<text class="primary" x="728.7" y="212" font-size="11" font-weight="500">13.9×</text>
<text class="secondary" x="278" y="235" text-anchor="end" font-size="10">h11</text>
<rect class="reference" x="330" y="223" width="28.0" height="10" rx="5"/>
<text class="primary" x="40" y="291" font-size="13" font-weight="500">Fragmented GET · 16 B</text>
<text class="secondary" x="40" y="313" font-size="11">1.03 µs vs 13.83 µs</text>
<text class="secondary" x="278" y="288" text-anchor="end" font-size="10">h11r</text>
<rect class="candidate" x="330" y="276" width="374.9" height="15" rx="7.5"/>
<text class="primary" x="714.9" y="288" font-size="11" font-weight="500">13.4×</text>
<text class="secondary" x="278" y="311" text-anchor="end" font-size="10">h11</text>
<rect class="reference" x="330" y="299" width="28.0" height="10" rx="5"/>
<text class="primary" x="40" y="367" font-size="13" font-weight="500">Chunked stream · 64 KiB</text>
<text class="secondary" x="40" y="389" font-size="11">8.23 µs vs 68.94 µs</text>
<text class="secondary" x="278" y="364" text-anchor="end" font-size="10">h11r</text>
<rect class="candidate" x="330" y="352" width="234.4" height="15" rx="7.5"/>
<text class="primary" x="574.4" y="364" font-size="11" font-weight="500">8.4×</text>
<text class="secondary" x="278" y="387" text-anchor="end" font-size="10">h11</text>
<rect class="reference" x="330" y="375" width="28.0" height="10" rx="5"/>
<text class="primary" x="40" y="443" font-size="13" font-weight="500">Client/server round trip</text>
<text class="secondary" x="40" y="465" font-size="11">1.67 µs vs 29.26 µs</text>
<text class="secondary" x="278" y="440" text-anchor="end" font-size="10">h11r</text>
<rect class="candidate" x="330" y="428" width="492.1" height="15" rx="7.5"/>
<text class="primary" x="832.1" y="440" font-size="11" font-weight="500">17.6×</text>
<text class="secondary" x="278" y="463" text-anchor="end" font-size="10">h11</text>
<rect class="reference" x="330" y="451" width="28.0" height="10" rx="5"/>
<text class="secondary" x="40" y="518" font-size="10">h11r 0.1.0 · h11 0.16.0 · CPython 3.12.13 (64-bit)</text>
<text class="secondary" x="40" y="535" font-size="10">Apple M4 · macOS-26.5.2-arm64-arm-64bit · 2026-07-17</text>
</svg>
